<mxfile host="app.diagrams.net" modified="2020-11-18T14:52:40.415Z" agent="5.0 (Macintosh; Intel Mac OS X 10_14_6) AppleWebKit/537.36 (KHTML, like Gecko) Chrome/86.0.4240.193 Safari/537.36" etag="IdfvrSIapNH_U36yNdTN" version="13.9.9" type="github">
  <diagram id="a-Lp3UTLZBWRWdUnVJo_" name="Page-1">
    <mxGraphModel dx="1325" dy="821" grid="1" gridSize="10" guides="1" tooltips="1" connect="1" arrows="1" fold="1" page="1" pageScale="1" pageWidth="827" pageHeight="1169" math="0" shadow="0">
      <root>
        <mxCell id="0" />
        <mxCell id="1" parent="0" />
        <mxCell id="aO3lcwmcy_ta9QV4zkQr-1" value="Test" style="rounded=0;whiteSpace=wrap;html=1;" vertex="1" parent="1">
          <mxGeometry x="294" y="170" width="120" height="60" as="geometry" />
        </mxCell>
        <mxCell id="aO3lcwmcy_ta9QV4zkQr-2" value="Actor" style="shape=umlActor;verticalLabelPosition=bottom;verticalAlign=top;html=1;outlineConnect=0;" vertex="1" parent="1">
          <mxGeometry x="384" y="170" width="30" height="60" as="geometry" />
        </mxCell>
      </root>
    </mxGraphModel>
  </diagram>
</mxfile>
